# xmcd
#
# Track frame offsets:
# 150
# 21115
# 38687
# 50502
# 66452
# 85702
# 105047
# 121840
# 136062
# 146675
# 163295
# 178250
#
# Disc length: 2481 seconds
#
#
# Revision: 0
# Processed by: cddbd v1.5.1PL0 Copyright (c) Steve Scherf et al.
# Submitted via: FreeRIP 2.92 
#
DISCID=9d09af0c
DTITLE=Deliverance - Pleasure Yourself
DYEAR=2000
DGENRE=Country
TTITLE0=Only Goes To Show
TTITLE1=I Don't Care
TTITLE2=Stupid Smile
TTITLE3=New Friends
TTITLE4=$40
TTITLE5=Texas
TTITLE6=Cold In Colorado
TTITLE7=Seven
TTITLE8=North
TTITLE9=Your Chance Has Come
TTITLE10=Easy On The Eye
TTITLE11=Chosen
EXTD=
EXTT0=
EXTT1=
EXTT2=
EXTT3=
EXTT4=
EXTT5=
EXTT6=
EXTT7=
EXTT8=
EXTT9=
EXTT10=
EXTT11=
PLAYORDER=
